<svg width="193" height="54" viewBox="0 0 193 54" fill="none" xmlns="http://www.w3.org/2000/svg">
<g clip-path="url(#clip0_39_25)" filter="url(#filter0_d_39_25)">
<path d="M7.66966 18.1292L10.2768 28.1523C10.8464 30.3431 11.3722 32.3916 11.7446 34.4291H11.8651C12.3142 32.4354 12.9605 30.3212 13.6178 28.1523L16.8383 18.1292H19.8507L22.907 27.988C23.6409 30.3541 24.2105 32.4354 24.6596 34.4291H24.813C25.1934 32.2703 25.6944 30.1345 26.3137 28.0318L29.129 18.173H32.6781L26.3137 37.8906H23.0275L20.0151 28.4809C19.3249 26.2901 18.7553 24.3293 18.2624 22.007H18.2405C17.7465 24.1983 17.1284 26.3598 16.3892 28.4809L13.2125 37.8577H9.92623L4 18.1292H7.66966Z" fill="#47585B"/>
<path d="M53.6993 27.8346C53.6993 35.1301 48.6494 38.3068 43.8405 38.3068C38.4948 38.3068 34.376 34.3962 34.376 28.1523C34.376 21.5798 38.703 17.6801 44.1582 17.6801C49.8653 17.6801 53.6993 21.7989 53.6993 27.8346ZM38.0457 28.0318C38.0457 32.3587 40.5323 35.6121 44.0377 35.6121C47.543 35.6121 50.0296 32.3916 50.0296 27.9442C50.0296 24.6031 48.3646 20.3639 44.1253 20.3639C39.886 20.3639 38.0457 24.2855 38.0457 28.0318Z" fill="#47585B"/>
<path d="M58.2343 24.2855C58.2343 21.9632 58.2343 19.9038 58.07 18.1292H61.2139L61.3344 21.996H61.4987C61.8382 20.79 62.5512 19.7227 63.5352 18.9472C64.5193 18.1718 65.7238 17.7282 66.9758 17.6801C67.3191 17.6763 67.6615 17.7168 67.9945 17.8006V21.1854C67.5948 21.1013 67.1871 21.0609 66.7786 21.0649C64.2482 21.0649 62.4517 22.9819 61.9697 25.6657C61.8557 26.2321 61.7934 26.8078 61.7835 27.3855V37.9015H58.2343V24.2855Z" fill="#47585B"/>
<path d="M71.7409 8.91672H75.3229V37.8577H71.7409V8.91672Z" fill="#47585B"/>
<path d="M98.3925 8.91672V32.764C98.3925 34.5167 98.3925 36.5103 98.5568 37.8577H95.3362L95.1829 34.429H95.0953C94.4558 35.6525 93.4822 36.6695 92.2878 37.3617C91.0933 38.054 89.727 38.3931 88.3475 38.3397C83.5824 38.3397 79.9127 34.3085 79.9127 28.3166C79.9127 21.7441 83.9439 17.7129 88.7528 17.7129C89.9246 17.6369 91.0954 17.8763 92.1433 18.406C93.1913 18.9358 94.0782 19.7367 94.7119 20.7253H94.7885V8.91672H98.3925ZM94.8104 26.1586C94.8154 25.65 94.7603 25.1426 94.6461 24.6469C94.389 23.4619 93.731 22.4017 92.7831 21.6454C91.8352 20.8891 90.6555 20.4829 89.4429 20.4953C85.7294 20.4953 83.5276 23.7816 83.5276 28.1632C83.5276 32.1506 85.4884 35.4587 89.3552 35.4587C90.5896 35.4549 91.7853 35.0275 92.7424 34.2479C93.6994 33.4683 94.3599 32.3837 94.6133 31.1756C94.7471 30.6532 94.8133 30.1157 94.8104 29.5763V26.1586Z" fill="#47585B"/>
<path d="M108.678 13.397V18.1292H113.816V20.813H108.678V31.4495C108.678 33.9032 109.38 35.2835 111.373 35.2835C112.075 35.3122 112.778 35.2309 113.455 35.0425L113.619 37.7263C112.599 38.1028 111.518 38.2849 110.431 38.263C109.712 38.2997 108.994 38.1795 108.327 37.9109C107.659 37.6423 107.057 37.2317 106.564 36.7075C105.546 35.6121 105.173 33.9032 105.173 31.581V20.813H102.117V18.1292H105.173V14.5034L108.678 13.397Z" fill="#FFBA08"/>
<path d="M117.858 24.2855C117.858 21.9632 117.858 19.9038 117.694 18.1292H120.838L120.958 21.996H121.122C121.462 20.79 122.175 19.7227 123.159 18.9472C124.143 18.1718 125.348 17.7282 126.6 17.6801C126.943 17.6763 127.285 17.7168 127.618 17.8006V21.1854C127.219 21.1013 126.811 21.0609 126.402 21.0649C123.872 21.0649 122.021 22.9819 121.593 25.6657C121.489 26.2184 121.434 26.7793 121.429 27.3417V37.8577H117.88L117.858 24.2855Z" fill="#FFBA08"/>
<path d="M135.352 12.5864C135.352 13.1761 135.118 13.7417 134.701 14.1588C134.284 14.5758 133.718 14.8101 133.128 14.8101C132.539 14.8101 131.973 14.5758 131.556 14.1588C131.139 13.7417 130.905 13.1761 130.905 12.5864C130.897 12.2894 130.95 11.994 131.06 11.7182C131.17 11.4423 131.335 11.1918 131.546 10.9817C131.756 10.7717 132.006 10.6066 132.282 10.4964C132.558 10.3862 132.853 10.3332 133.15 10.3408C133.443 10.3392 133.734 10.3966 134.005 10.5094C134.276 10.6223 134.521 10.7883 134.726 10.9977C134.932 11.2072 135.093 11.4557 135.2 11.7286C135.308 12.0015 135.359 12.2932 135.352 12.5864ZM131.354 37.8577V18.1402H134.947V37.8577H131.354Z" fill="#FFBA08"/>
<path d="M140.928 24.5703C140.928 22.0399 140.84 20.0024 140.763 18.1292H143.984L144.137 21.5141H144.214C144.924 20.2981 145.951 19.2986 147.187 18.6231C148.422 17.9476 149.818 17.6216 151.225 17.6801C155.99 17.6801 159.583 21.7112 159.583 27.7032C159.583 34.8015 155.201 38.3069 150.611 38.3069C149.418 38.3595 148.231 38.1015 147.168 37.5581C146.104 37.0147 145.199 36.2046 144.543 35.2068H144.455V45.92H140.928V24.5703ZM144.466 29.8283C144.478 30.3214 144.533 30.8125 144.63 31.2962C144.931 32.495 145.623 33.5591 146.598 34.3192C147.572 35.0794 148.773 35.4921 150.009 35.4916C153.799 35.4916 156.001 32.3916 156.001 27.8237C156.001 23.8692 153.919 20.4953 150.129 20.4953C148.863 20.5312 147.645 20.9862 146.666 21.7892C145.686 22.5921 145.001 23.6974 144.718 24.9318C144.567 25.4073 144.483 25.9012 144.466 26.3996V29.8283Z" fill="#FFBA08"/>
<path d="M2.90458 35.2178C104.231 44.6384 163.822 18.1292 163.822 18.1292C163.822 18.1292 121.922 47.9137 1.36003 42.1408" fill="#F5F8FA"/>
<path d="M105.217 32.8626C142.034 27.2212 162.179 18.2387 162.179 18.2387C162.179 18.2387 141.366 32.4792 106.751 37.0033" stroke="#FFBA08" stroke-miterlimit="10"/>
<path d="M9.38947 35.9846C41.3468 38.59 73.497 37.5426 105.217 32.8626" stroke="#47585B" stroke-miterlimit="10"/>
<path d="M178.676 22.489C178.106 18.9179 177.581 15.544 177.022 12.0277L176.124 12.7617C174.123 14.5258 171.823 15.9171 169.332 16.8695C168.94 17.0413 168.512 17.1132 168.086 17.0787C167.659 17.0443 167.248 16.9047 166.889 16.6723C165.345 15.6864 163.745 14.7663 162.157 13.8242C162.395 13.4763 162.728 13.2045 163.117 13.0413C163.505 12.8781 163.933 12.8304 164.348 12.9041C165.599 13.0374 166.858 13.0996 168.116 13.0903C168.511 13.0841 168.894 12.9538 169.212 12.7178C173.593 8.99341 177.975 5.25437 182.357 1.50073C183.495 0.498454 184.97 -0.037461 186.486 9.17108e-06C187.845 9.17108e-06 188.414 0.898254 187.834 2.19085C187.513 2.83889 187.07 3.41907 186.53 3.8997C185.248 5.0718 183.912 6.17818 182.576 7.28455C182.402 7.4121 182.259 7.57649 182.157 7.7659C182.055 7.95531 181.996 8.16502 181.984 8.37997C181.699 12.0825 181.349 15.785 181.064 19.4875C181.061 19.8625 180.967 20.2312 180.79 20.5615C180.612 20.8918 180.357 21.1737 180.045 21.3826C179.57 21.7273 179.113 22.0966 178.676 22.489Z" fill="#47585B"/>
<path d="M166.604 6.92306C167.623 6.04672 168.335 4.90749 169.978 5.15943C171.621 5.41138 173.265 5.42233 174.995 5.54283L175.554 5.61951C174.305 6.71493 173.166 7.63508 172.016 8.58809C171.95 8.63572 171.875 8.6691 171.796 8.68608C171.717 8.70306 171.635 8.70327 171.556 8.68668C170.022 8.2047 168.488 7.71176 166.966 7.20786C166.856 7.175 166.78 7.06546 166.604 6.92306Z" fill="#47585B"/>
</g>
<defs>
<filter id="filter0_d_39_25" x="0" y="0" width="192.064" height="53.92" filterUnits="userSpaceOnUse" color-interpolation-filters="sRGB">
<feFlood flood-opacity="0" result="BackgroundImageFix"/>
<feColorMatrix in="SourceAlpha" type="matrix" values="0 0 0 0 0 0 0 0 0 0 0 0 0 0 0 0 0 0 127 0" result="hardAlpha"/>
<feOffset dy="4"/>
<feGaussianBlur stdDeviation="2"/>
<feComposite in2="hardAlpha" operator="out"/>
<feColorMatrix type="matrix" values="0 0 0 0 0 0 0 0 0 0 0 0 0 0 0 0 0 0 0.25 0"/>
<feBlend mode="normal" in2="BackgroundImageFix" result="effect1_dropShadow_39_25"/>
<feBlend mode="normal" in="SourceGraphic" in2="effect1_dropShadow_39_25" result="shape"/>
</filter>
<clipPath id="clip0_39_25">
<rect width="184.064" height="45.92" fill="white" transform="translate(4)"/>
</clipPath>
</defs>
</svg>
